<svg width="64" height="64" viewBox="0 0 64 64" fill="none" xmlns="http://www.w3.org/2000/svg">
<g clip-path="url(#clip0_1254_3463)">
<path fill-rule="evenodd" clip-rule="evenodd" d="M32.4544 9.03826C37.8346 9.31015 42.6045 11.0221 45.753 15.0966C48.0574 18.0788 49.8055 22.5924 48.4664 27.9176L39.3799 25.4428C39.2232 23.613 38.5837 22.3109 37.5525 21.0889C36.2369 19.5299 34.1686 19.0232 32.2064 19.0187C29.6105 19.0127 26.1284 19.2097 25.8186 22.6146C25.5338 25.7452 28.4035 26.9497 30.0345 27.5318C31.6656 28.1138 52.6984 35.2915 64.0016 39.1321L63.9058 39.4873C48.1276 35.8475 31.2666 32.194 16.363 28.9265C14.7126 24.8962 14.9158 19.7647 17.1894 15.9942C18.7008 13.488 21.0967 11.506 23.8173 10.4329C26.476 9.38418 28.6636 8.8467 32.4544 9.03826Z" fill="url(#paint0_linear_1254_3463)"/>
<path fill-rule="evenodd" clip-rule="evenodd" d="M30.878 54.0866C25.505 53.6965 20.7737 51.88 17.7157 47.7373C15.4774 44.705 13.8289 40.1541 15.2848 34.8598L24.3147 37.5337C24.4312 39.3666 25.0418 40.6824 26.0459 41.9267C27.327 43.5143 29.3836 44.0664 31.3453 44.114C33.9404 44.177 37.426 44.0567 37.8105 40.6594C38.1642 37.5358 35.3217 36.2685 33.7038 35.6508C32.0858 35.0329 11.216 27.3945 0 23.3063L0.103592 22.9531C15.798 26.9391 32.5746 30.9625 47.4027 34.557C48.964 38.6225 48.6481 43.7484 46.2921 47.4679C44.726 49.9404 42.2871 51.8691 39.5435 52.8821C36.8624 53.8721 34.6636 54.3615 30.878 54.0866Z" fill="url(#paint1_linear_1254_3463)"/>
</g>
<defs>
<linearGradient id="paint0_linear_1254_3463" x1="41" y1="10.5" x2="34" y2="32.5" gradientUnits="userSpaceOnUse">
<stop offset="0.866742"/>
<stop offset="0.99162" stop-opacity="0"/>
</linearGradient>
<linearGradient id="paint1_linear_1254_3463" x1="22.2506" y1="53.9228" x2="29.7494" y2="30.5772" gradientUnits="userSpaceOnUse">
<stop offset="0.867928"/>
<stop offset="0.99162" stop-opacity="0"/>
</linearGradient>
<clipPath id="clip0_1254_3463">
<rect width="64" height="64" fill="white"/>
</clipPath>
</defs>
</svg>
