<svg width="14" height="14" viewBox="0 0 14 14" fill="none" xmlns="http://www.w3.org/2000/svg">
<path d="M1.88432 3.30621L10.7513 11.9628M1.88432 3.30621C2.21423 2.92957 2.70698 2.69047 3.2575 2.69047H6.25502M1.88432 3.30621C1.61898 3.60913 1.45898 4.00102 1.45898 4.42903V10.8038C1.45898 11.7639 2.26421 12.5423 3.2575 12.5423H9.85204C10.8453 12.5423 11.6506 11.7639 11.6506 10.8038V8.19591M6.25502 8.19591L2.35824 11.9628M10.504 3.42935V3.39231M12.5423 3.38652C12.5423 4.67154 10.504 6.38491 10.504 6.38491C10.504 6.38491 8.46569 4.67154 8.46569 3.38652C8.46569 2.32197 9.37827 1.45898 10.504 1.45898C11.6297 1.45898 12.5423 2.32197 12.5423 3.38652Z" stroke="#F7F8F5" stroke-width="0.875" stroke-linecap="round" stroke-linejoin="round"/>
</svg>
