<svg width="58" height="40" viewBox="0 0 58 40" fill="none" xmlns="http://www.w3.org/2000/svg">
<path d="M29.9975 1.39547C32.5139 1.60105 34.7309 2.21093 36.6462 3.22365C38.5962 4.23914 40.1179 5.70068 41.2106 7.60882C42.3418 9.48506 42.9171 11.8521 42.9338 14.7075L36.022 14.143C35.9041 12.529 35.5232 11.2855 34.8815 10.4126C34.2421 9.50397 33.4545 8.84924 32.5235 8.45207C31.593 8.05527 30.648 7.81926 29.6914 7.74114C28.8056 7.66894 27.8363 7.7317 26.7857 7.93122C25.7706 8.13382 24.8817 8.54316 24.1182 9.15845C23.39 9.77669 22.9758 10.6875 22.8772 11.8919C22.7962 12.8844 23.0777 13.8013 23.7228 14.639C24.4035 15.4796 25.2559 15.8724 27.318 16.7363C28.1204 17.0724 55.6979 27.0205 55.6979 27.0205L16.7187 17.2315C16.0186 15.7052 15.8634 13.2157 16.0086 11.4386C16.1997 9.09988 16.9486 7.16395 18.2509 5.62925C19.5566 4.05889 21.2376 2.9096 23.2948 2.18555C25.3521 1.46151 27.5872 1.19862 29.9975 1.39547Z" fill="url(#paint0_linear_1163_11972)"/>
<path d="M27.9889 38.9568C25.4725 38.7512 23.2555 38.1412 21.3402 37.1285C19.3902 36.1129 17.8685 34.6514 16.7759 32.7432C15.6448 30.8669 15.0695 28.4999 15.0528 25.6445L21.9646 26.2091C22.0825 27.8232 22.4634 29.0667 23.105 29.9396C23.7444 30.8482 24.532 31.5029 25.463 31.9001C26.3935 32.297 27.3385 32.533 28.2951 32.6111C29.1809 32.6833 30.1502 32.6206 31.2008 32.4211C32.2159 32.2185 33.1048 31.8092 33.8684 31.1939C34.5966 30.5757 35.0107 29.6649 35.1094 28.4605C35.1904 27.468 34.9089 26.5511 34.2638 25.7134C33.5832 24.8728 32.7308 24.4799 30.6686 23.616C29.8663 23.2799 2.28899 13.3312 2.28899 13.3312L41.268 23.121C41.968 24.6474 42.1232 27.1368 41.978 28.914C41.7868 31.2527 41.0379 33.1886 39.7355 34.7233C38.4298 36.2936 36.7488 37.4428 34.6916 38.1669C32.6342 38.8908 30.3992 39.1537 27.9889 38.9568Z" fill="url(#paint1_linear_1163_11972)"/>
<defs>
<linearGradient id="paint0_linear_1163_11972" x1="37.2612" y1="1.98867" x2="31.9012" y2="21.1315" gradientUnits="userSpaceOnUse">
<stop offset="0.713134" stop-color="white"/>
<stop offset="0.99162" stop-color="white" stop-opacity="0"/>
</linearGradient>
<linearGradient id="paint1_linear_1163_11972" x1="20.7251" y1="38.3634" x2="26.0856" y2="19.2207" gradientUnits="userSpaceOnUse">
<stop offset="0.713134" stop-color="white"/>
<stop offset="0.99162" stop-color="white" stop-opacity="0"/>
</linearGradient>
</defs>
</svg>
