<svg width="58" height="40" viewBox="0 0 58 40" fill="none" xmlns="http://www.w3.org/2000/svg">
<path fill-rule="evenodd" clip-rule="evenodd" d="M23.5865 1.36766C25.8201 0.576761 28.2222 0.349954 30.5496 0.543913C32.9171 0.73551 35.3014 1.30874 37.4388 2.44137C37.6025 2.52663 37.7639 2.6161 37.9239 2.70857C39.722 3.7353 41.2418 5.27444 42.2594 7.07236L42.252 7.06128C43.6139 9.3233 44.0499 11.9598 44.0657 14.4812L44.0694 15.1695L35.9341 14.5046L35.8947 13.9665C35.8022 12.7226 35.5368 11.4699 34.8739 10.5631L34.8666 10.5533C34.327 9.78181 33.6182 9.16454 32.7782 8.80975C31.9361 8.44989 31.0449 8.22041 30.1408 8.1473C29.2431 8.07449 28.3182 8.15336 27.4097 8.32338C26.5256 8.49551 25.6999 8.86135 25.0074 9.41679L24.9015 9.50914C24.3372 10.0411 24.0508 10.8467 23.978 11.7181C23.8966 12.5566 24.1544 13.3722 24.6836 14.0626L24.8153 14.2202C25.5557 15.0359 26.844 15.4762 28.029 16.013C37.3742 19.5494 46.8598 23.1288 56.2521 26.6528L56.1622 26.9483C50.8219 25.5383 45.4778 24.1401 40.1267 22.7729L35.2852 21.5453L18.1637 17.2455L18.165 17.2467C17.3842 17.0507 17.1682 16.9997 16.5102 16.8234C15.7911 14.8972 15.766 13.0976 15.8821 11.164C16.0487 8.97603 16.7878 6.72407 18.2672 5.00375C19.5041 3.50405 21.1459 2.34208 22.9314 1.61762C23.1478 1.52888 23.3662 1.44518 23.5865 1.36766Z" fill="url(#paint0_linear_1163_11973)"/>
<path fill-rule="evenodd" clip-rule="evenodd" d="M35.2006 38.8025C32.9501 39.544 30.5436 39.7179 28.2211 39.4727C25.8583 39.229 23.4872 38.6034 21.3753 37.4239C21.2135 37.3351 21.0542 37.2421 20.8962 37.1461C19.1212 36.08 17.6356 34.5078 16.6579 32.6879L16.665 32.6991C15.3533 30.4076 14.9755 27.7622 15.0152 25.241L15.0267 24.5528L23.1454 25.3968L23.1729 25.9356C23.238 27.1812 23.4758 28.4395 24.1185 29.3606L24.1256 29.3706C24.648 30.1538 25.3431 30.7865 26.175 31.1597C27.0091 31.5381 27.895 31.7871 28.7973 31.8801C29.6931 31.9727 30.6195 31.9142 31.5316 31.7643C32.4192 31.6116 33.2528 31.2641 33.9574 30.724L34.0653 30.634C34.6412 30.1147 34.9452 29.3156 35.0372 28.4459C35.137 27.6094 34.8972 26.7884 34.3835 26.0865L34.2552 25.9261C33.533 25.0942 32.2547 24.6256 31.0817 24.0629C21.8167 20.3215 12.4123 16.534 3.09993 12.8039L3.19631 12.5105C8.50428 14.0378 13.8162 15.5534 19.1359 17.0381L23.9492 18.3721L40.9718 23.048L40.9706 23.0467C41.7469 23.26 41.9617 23.3156 42.6157 23.5064C43.2921 25.448 43.2776 27.2476 43.1189 29.1782C42.9041 31.362 42.1157 33.5972 40.5987 35.2845C39.3291 36.7566 37.6621 37.8821 35.8611 38.567C35.6428 38.651 35.4225 38.7299 35.2006 38.8025Z" fill="url(#paint1_linear_1163_11973)"/>
<defs>
<linearGradient id="paint0_linear_1163_11973" x1="36.0411" y1="0.478515" x2="30.4613" y2="20.0211" gradientUnits="userSpaceOnUse">
<stop offset="0.713134"/>
<stop offset="0.99162" stop-opacity="0"/>
</linearGradient>
<linearGradient id="paint1_linear_1163_11973" x1="22.7295" y1="39.4171" x2="28.7384" y2="20.0021" gradientUnits="userSpaceOnUse">
<stop offset="0.713134"/>
<stop offset="0.99162" stop-opacity="0"/>
</linearGradient>
</defs>
</svg>
