<svg width="58" height="40" viewBox="0 0 58 40" fill="none" xmlns="http://www.w3.org/2000/svg">
<path d="M29.8009 1.70862C32.3193 1.88783 34.5426 2.47447 36.4684 3.46708C38.429 4.46209 39.9659 5.90762 41.0785 7.80421C42.2292 9.6685 42.8293 12.0294 42.8759 14.8844C42.8883 15.6406 42.6836 16.4038 42.6836 16.4038L35.9586 14.3924C35.8238 12.7797 35.4299 11.5402 34.7791 10.6741C34.1302 9.77223 33.3358 9.12579 32.4007 8.73838C31.4661 8.35134 30.5186 8.12525 29.5613 8.05715C28.6748 7.99423 27.7062 8.06713 26.6578 8.27764C25.6449 8.49086 24.7603 8.90949 24.0032 9.53274C23.2815 10.1586 22.877 11.0736 22.791 12.2791C22.7203 13.2723 23.0114 14.1863 23.6653 15.0171C24.3547 15.8505 25.2112 16.2345 27.2823 17.0767C28.0881 17.4044 55.7683 27.0632 55.7683 27.0632L16.6887 17.6829C15.9727 16.1639 15.7914 13.6763 15.918 11.8977C16.0846 9.5571 16.8131 7.61343 18.0994 6.06517C19.3885 4.48123 21.0574 3.3144 23.1069 2.56885C25.1565 1.8233 27.3887 1.53703 29.8009 1.70862Z" fill="url(#paint0_linear_1254_3459)"/>
<path d="M28.1854 39.2892C25.667 39.1099 23.4438 38.5232 21.5179 37.5306C19.5574 36.5355 18.0206 35.0899 16.908 33.1933C15.7573 31.329 15.1572 28.9681 15.1107 26.1131C15.0984 25.3569 15.3031 24.5937 15.3031 24.5937L22.028 26.6053C22.1628 28.218 22.5567 29.4575 23.2074 30.3236C23.8563 31.2255 24.6507 31.8719 25.5858 32.2593C26.5204 32.6464 27.4679 32.8725 28.4252 32.9406C29.3117 33.0036 30.2803 32.9307 31.3287 32.7202C32.3416 32.507 33.2262 32.0884 33.9833 31.4651C34.705 30.8393 35.1096 29.9243 35.1956 28.7188C35.2663 27.7256 34.9752 26.8116 34.3213 25.9808C33.6319 25.1474 32.7755 24.7634 30.7044 23.9211C29.8986 23.5934 2.21862 13.9341 2.21862 13.9341L41.298 23.3152C42.014 24.8342 42.1952 27.3218 42.0686 29.1004C41.9019 31.441 41.1734 33.3846 39.8871 34.9328C38.5979 36.5168 36.929 37.6836 34.8795 38.4291C32.8298 39.1746 30.5977 39.4608 28.1854 39.2892Z" fill="url(#paint1_linear_1254_3459)"/>
<defs>
<linearGradient id="paint0_linear_1254_3459" x1="37.0705" y1="2.22573" x2="31.9112" y2="21.4236" gradientUnits="userSpaceOnUse">
<stop offset="0.713134" stop-color="white"/>
<stop offset="0.99162" stop-color="white" stop-opacity="0"/>
</linearGradient>
<linearGradient id="paint1_linear_1254_3459" x1="20.9159" y1="38.7719" x2="26.0756" y2="19.5741" gradientUnits="userSpaceOnUse">
<stop offset="0.713134" stop-color="white"/>
<stop offset="0.99162" stop-color="white" stop-opacity="0"/>
</linearGradient>
</defs>
</svg>
