<svg width="58" height="40" viewBox="0 0 58 40" fill="none" xmlns="http://www.w3.org/2000/svg">
<path d="M29.799 1.70862C32.3174 1.88783 34.5407 2.47447 36.4665 3.46708C38.427 4.46209 39.9639 5.90762 41.0765 7.80421C42.2273 9.6685 42.8274 12.0294 42.874 14.8844C42.8863 15.6406 42.6816 16.4038 42.6816 16.4038L35.9566 14.3924C35.8218 12.7797 35.4279 11.5402 34.7772 10.6741C34.1283 9.77223 33.3338 9.12579 32.3988 8.73838C31.4641 8.35134 30.5167 8.12525 29.5594 8.05715C28.6729 7.99423 27.7042 8.06713 26.6558 8.27764C25.6429 8.49086 24.7584 8.90949 24.0013 9.53274C23.2796 10.1586 22.875 11.0736 22.789 12.2791C22.7184 13.2723 23.0094 14.1863 23.6634 15.0171C24.3528 15.8505 25.2092 16.2345 27.2803 17.0767C28.0862 17.4044 55.7663 27.0632 55.7663 27.0632L16.6867 17.6829C15.9707 16.1639 15.7895 13.6763 15.916 11.8977C16.0826 9.5571 16.8112 7.61343 18.0974 6.06517C19.3866 4.48123 21.0554 3.3144 23.1049 2.56885C25.1546 1.8233 27.3867 1.53703 29.799 1.70862Z" fill="url(#paint0_linear_1184_797)"/>
<path d="M28.1835 39.2892C25.6651 39.1099 23.4418 38.5232 21.516 37.5306C19.5555 36.5355 18.0186 35.0899 16.906 33.1933C15.7553 31.329 15.1553 28.9681 15.1087 26.1131C15.0964 25.3569 15.3011 24.5937 15.3011 24.5937L22.0261 26.6053C22.1609 28.218 22.5547 29.4575 23.2054 30.3236C23.8544 31.2255 24.6488 31.8719 25.5838 32.2593C26.5185 32.6464 27.4659 32.8725 28.4232 32.9406C29.3097 33.0036 30.2783 32.9307 31.3268 32.7202C32.3397 32.507 33.2242 32.0884 33.9813 31.4651C34.703 30.8393 35.1076 29.9243 35.1937 28.7188C35.2643 27.7256 34.9733 26.8116 34.3194 25.9808C33.63 25.1474 32.7735 24.7634 30.7025 23.9211C29.8966 23.5934 2.21666 13.9341 2.21666 13.9341L41.296 23.3152C42.012 24.8342 42.1932 27.3218 42.0667 29.1004C41.9 31.441 41.1714 33.3846 39.8851 34.9328C38.5959 36.5168 36.9271 37.6836 34.8775 38.4291C32.8279 39.1746 30.5957 39.4608 28.1835 39.2892Z" fill="url(#paint1_linear_1184_797)"/>
<defs>
<linearGradient id="paint0_linear_1184_797" x1="37.0685" y1="2.22573" x2="31.9092" y2="21.4236" gradientUnits="userSpaceOnUse">
<stop offset="0.713134" stop-color="white"/>
<stop offset="0.99162" stop-color="white" stop-opacity="0"/>
</linearGradient>
<linearGradient id="paint1_linear_1184_797" x1="20.9139" y1="38.7719" x2="26.0737" y2="19.5741" gradientUnits="userSpaceOnUse">
<stop offset="0.713134" stop-color="white"/>
<stop offset="0.99162" stop-color="white" stop-opacity="0"/>
</linearGradient>
</defs>
</svg>
