<svg width="58" height="40" viewBox="0 0 58 40" fill="none" xmlns="http://www.w3.org/2000/svg">
<path fill-rule="evenodd" clip-rule="evenodd" d="M29.648 0.687974C34.1691 0.916443 38.1773 2.35503 40.823 5.77885C42.7594 8.28484 44.2284 12.0777 43.1031 16.5525L35.4676 14.4729C35.3359 12.9353 34.7986 11.8411 33.932 10.8143C32.8265 9.50419 31.0885 9.07841 29.4396 9.07463C27.2583 9.06964 24.3322 9.23514 24.0719 12.0963C23.8326 14.727 26.244 15.7392 27.6146 16.2283C28.9852 16.7174 46.6593 22.7489 56.1575 25.9762L56.077 26.2747C42.8184 23.2161 28.6499 20.146 16.1262 17.4003C14.7394 14.0136 14.9101 9.70151 16.8207 6.53315C18.0907 4.42713 20.104 2.76168 22.3902 1.85988C24.6243 0.978651 26.4626 0.527003 29.648 0.687974Z" fill="url(#paint0_linear_1254_3455)"/>
<path fill-rule="evenodd" clip-rule="evenodd" d="M28.3257 38.5431C23.8107 38.2153 19.835 36.6889 17.2653 33.2077C15.3844 30.6597 13.9992 26.8355 15.2226 22.3866L22.8105 24.6335C22.9084 26.1737 23.4215 27.2794 24.2653 28.325C25.3418 29.6591 27.07 30.123 28.7184 30.163C30.8991 30.216 33.8281 30.1149 34.1512 27.2601C34.4484 24.6353 32.0598 23.5704 30.7003 23.0513C29.3407 22.5321 11.8035 16.1134 2.37858 12.6781L2.46563 12.3813C15.6538 15.7308 29.7514 19.1117 42.2116 22.1322C43.5236 25.5485 43.2582 29.8558 41.2784 32.9814C39.9624 35.059 37.9129 36.6797 35.6075 37.531C33.3545 38.3629 31.5068 38.7741 28.3257 38.5431Z" fill="url(#paint1_linear_1254_3455)"/>
<defs>
<linearGradient id="paint0_linear_1254_3455" x1="35" y1="0.499999" x2="30.0165" y2="20.0042" gradientUnits="userSpaceOnUse">
<stop offset="0.849235"/>
<stop offset="0.99162" stop-opacity="0"/>
</linearGradient>
<linearGradient id="paint1_linear_1254_3455" x1="22.8793" y1="38.6743" x2="28.4833" y2="18.9952" gradientUnits="userSpaceOnUse">
<stop offset="0.85"/>
<stop offset="0.99162" stop-opacity="0"/>
</linearGradient>
</defs>
</svg>
