<svg width="390" height="790" viewBox="0 0 390 790" fill="none" xmlns="http://www.w3.org/2000/svg">
  <rect width="390" height="790" rx="46" fill="#fff"/>
  <text x="50" y="39" fill="#101418" font-family="Arial, Helvetica, sans-serif" font-size="17" font-weight="700">9:41</text>
  <text x="196" y="77" text-anchor="middle" fill="#15191D" font-family="Arial, Helvetica, sans-serif" font-size="16" font-weight="700">Product Detail</text>
  <path d="M28 75h18m-18 0 10-10m-10 10 10 10" stroke="#15191D" stroke-width="2.5" stroke-linecap="round" stroke-linejoin="round"/>
  <path d="M348 66c-11-13-34 4 0 24 34-20 11-37 0-24z" stroke="#15191D" stroke-width="2" fill="none"/>
  <rect x="28" y="116" width="334" height="274" rx="28" fill="#F3F5F1"/>
  <circle cx="195" cy="235" r="92" fill="#DDE7D8"/>
  <rect x="146" y="158" width="98" height="154" rx="34" fill="#fff" stroke="#CDD5C8"/>
  <rect x="164" y="196" width="62" height="80" rx="20" fill="#8BD54A"/>
  <text x="28" y="442" fill="#15191D" font-family="Arial, Helvetica, sans-serif" font-size="24" font-weight="700">Hydrating Ceramide Cream</text>
  <text x="28" y="474" fill="#737B85" font-family="Arial, Helvetica, sans-serif" font-size="14">Moisture barrier care - 50ml</text>
  <rect x="28" y="516" width="334" height="54" rx="27" fill="#111518"/>
  <text x="195" y="550" text-anchor="middle" fill="#fff" font-family="Arial, Helvetica, sans-serif" font-size="16" font-weight="700">Check nearby stock</text>
  <rect x="28" y="612" width="334" height="1" fill="#E8EAED"/>
  <text x="28" y="655" fill="#15191D" font-family="Arial, Helvetica, sans-serif" font-size="17" font-weight="700">Store pickup available</text>
  <text x="28" y="684" fill="#737B85" font-family="Arial, Helvetica, sans-serif" font-size="14">See inventory before you visit.</text>
</svg>
