<svg width="390" height="790" viewBox="0 0 390 790" fill="none" xmlns="http://www.w3.org/2000/svg">
  <rect width="390" height="790" rx="46" fill="#fff"/>
  <text x="50" y="39" fill="#101418" font-family="Arial, Helvetica, sans-serif" font-size="17" font-weight="700">9:41</text>
  <text x="196" y="77" text-anchor="middle" fill="#15191D" font-family="Arial, Helvetica, sans-serif" font-size="16" font-weight="700">Store Stock</text>
  <path d="M28 75h18m-18 0 10-10m-10 10 10 10" stroke="#15191D" stroke-width="2.5" stroke-linecap="round" stroke-linejoin="round"/>
  <text x="28" y="133" fill="#15191D" font-family="Arial, Helvetica, sans-serif" font-size="21" font-weight="700">Nearby availability</text>
  <text x="28" y="164" fill="#737B85" font-family="Arial, Helvetica, sans-serif" font-size="14">Hydrating Ceramide Cream</text>
  <g font-family="Arial, Helvetica, sans-serif">
    <rect x="28" y="207" width="334" height="96" rx="20" fill="#F4F5F6"/>
    <text x="52" y="247" fill="#15191D" font-size="16" font-weight="700">Gangnam Station</text>
    <text x="52" y="275" fill="#737B85" font-size="13">0.4 mi - Pickup today</text>
    <rect x="258" y="236" width="78" height="30" rx="15" fill="#E5F8DD"/>
    <text x="297" y="256" text-anchor="middle" fill="#48AC20" font-size="13" font-weight="700">In stock</text>
    <rect x="28" y="327" width="334" height="96" rx="20" fill="#F4F5F6"/>
    <text x="52" y="367" fill="#15191D" font-size="16" font-weight="700">Seongsu Main</text>
    <text x="52" y="395" fill="#737B85" font-size="13">1.2 mi - Pickup tomorrow</text>
    <rect x="252" y="356" width="84" height="30" rx="15" fill="#FFF4D7"/>
    <text x="294" y="376" text-anchor="middle" fill="#D19100" font-size="13" font-weight="700">Low stock</text>
    <rect x="28" y="447" width="334" height="96" rx="20" fill="#F4F5F6"/>
    <text x="52" y="487" fill="#15191D" font-size="16" font-weight="700">Hongdae Branch</text>
    <text x="52" y="515" fill="#737B85" font-size="13">2.0 mi - Notify when available</text>
    <rect x="248" y="476" width="88" height="30" rx="15" fill="#E7EAEE"/>
    <text x="292" y="496" text-anchor="middle" fill="#8D96A0" font-size="13" font-weight="700">Out</text>
  </g>
</svg>
