<svg width="1200" height="720" viewBox="0 0 1200 720" fill="none" xmlns="http://www.w3.org/2000/svg">
  <rect width="1200" height="720" rx="36" fill="#202224"/>
  <rect x="-120" y="130" width="360" height="720" rx="42" transform="rotate(-28 -120 130)" fill="#F4F7F5" stroke="#111417" stroke-width="14"/>
  <rect x="475" y="-70" width="310" height="640" rx="42" transform="rotate(-28 475 -70)" fill="#18F52B" stroke="#111417" stroke-width="14"/>
  <rect x="290" y="430" width="340" height="620" rx="42" transform="rotate(-28 290 430)" fill="#FAFAFA" stroke="#111417" stroke-width="14"/>
  <rect x="750" y="420" width="340" height="620" rx="42" transform="rotate(-28 750 420)" fill="#FAFAFA" stroke="#111417" stroke-width="14"/>
  <rect x="475" y="100" width="130" height="24" rx="12" transform="rotate(-28 475 100)" fill="#101214"/>
  <text x="604" y="330" fill="#F7F8F5" font-family="Helvetica, Arial, sans-serif" font-size="42" font-weight="700" transform="rotate(-28 604 330)" text-anchor="middle">OLIVE YOUNG</text>
  <path d="M44 268C110 196 176 237 235 178C290 124 364 146 427 93" stroke="#C9D7D8" stroke-width="22" stroke-linecap="round"/>
  <path d="M36 365C119 319 187 353 276 290C349 239 411 251 505 203" stroke="#A9DDB1" stroke-width="26" stroke-linecap="round"/>
  <g opacity="0.72">
    <rect x="436" y="557" width="124" height="46" rx="6" transform="rotate(-28 436 557)" fill="#E9E9E9"/>
    <rect x="452" y="634" width="210" height="18" rx="9" transform="rotate(-28 452 634)" fill="#D5D5D5"/>
    <rect x="478" y="685" width="175" height="18" rx="9" transform="rotate(-28 478 685)" fill="#D5D5D5"/>
    <rect x="884" y="548" width="124" height="46" rx="6" transform="rotate(-28 884 548)" fill="#E9E9E9"/>
    <rect x="900" y="626" width="210" height="18" rx="9" transform="rotate(-28 900 626)" fill="#D5D5D5"/>
    <rect x="927" y="676" width="175" height="18" rx="9" transform="rotate(-28 927 676)" fill="#D5D5D5"/>
  </g>
  <rect width="1200" height="720" fill="url(#shade)"/>
  <defs>
    <linearGradient id="shade" x1="0" y1="0" x2="1200" y2="720" gradientUnits="userSpaceOnUse">
      <stop stop-color="white" stop-opacity="0.05"/>
      <stop offset="1" stop-color="black" stop-opacity="0.32"/>
    </linearGradient>
  </defs>
</svg>
