<svg width="627" height="121" viewBox="0 0 627 121" fill="none" xmlns="http://www.w3.org/2000/svg">
<g clip-path="url(#clip0_1369_2224)">
<path d="M-23.7941 39.3441V76.3412C-23.7941 77 -23.7118 77.4735 -23.5471 77.7618C-23.3412 78.0088 -22.8676 78.1324 -22.1265 78.1324H-15.4559V84H-24.5353C-27.5412 84 -29.8265 83.4853 -31.3912 82.4559C-32.9147 81.4265 -33.6765 79.6353 -33.6765 77.0824V42.8647C-33.6765 41.4235 -33.4706 40.4765 -33.0588 40.0235C-32.6059 39.5706 -31.6794 39.3441 -30.2794 39.3441H-23.7941ZM-13.6029 53.1176H-7.17941C-5.94412 53.1176 -5.05882 53.4676 -4.52353 54.1676C-3.98823 54.8265 -3.72059 55.9176 -3.72059 57.4412V76.3412C-3.72059 77 -3.63823 77.4735 -3.47353 77.7618C-3.26765 78.0088 -2.79412 78.1324 -2.05294 78.1324H4.61765V84H-11.3794C-12.0382 84 -12.5735 83.7735 -12.9853 83.3206C-13.3971 82.8676 -13.6029 82.2706 -13.6029 81.5294V53.1176ZM7.08824 39.3441H13.5735C14.9735 39.3441 15.9 39.5706 16.3529 40.0235C16.8059 40.4765 17.0324 41.4235 17.0324 42.8647V81.5294C17.0324 82.2706 16.8059 82.8676 16.3529 83.3206C15.9412 83.7735 15.4059 84 14.7471 84H7.08824V39.3441ZM36.4212 39.3441V76.3412C36.4212 76.9588 36.5653 77.4118 36.8535 77.7C37.1829 77.9882 37.8829 78.1324 38.9535 78.1324H43.5241V84H35.68C34.0329 84 32.6535 83.8765 31.5418 83.6294C30.4712 83.3824 29.5241 82.8882 28.7006 82.1471C27.9182 81.3647 27.3006 80.5 26.8476 79.5529C26.4359 78.6059 26.1065 77.1853 25.8594 75.2912C25.4888 72.45 25.3035 68.6412 25.3035 63.8647C25.3035 59.0471 25.3241 55.65 25.3653 53.6735C25.4476 51.6971 25.6123 49.7824 25.8594 47.9294C26.1065 46.0353 26.4359 44.6353 26.8476 43.7294C27.3006 42.7824 27.9182 41.9382 28.7006 41.1971C29.5241 40.4147 30.4712 39.9206 31.5418 39.7147C32.6535 39.4676 34.0329 39.3441 35.68 39.3441H36.4212ZM38.8918 39.4059H46.7359C48.3829 39.4059 49.7418 39.5294 50.8123 39.7765C51.9241 40.0235 52.8712 40.5382 53.6535 41.3206C54.477 42.0618 55.0947 42.9059 55.5065 43.8529C55.9594 44.8 56.3094 46.2206 56.5565 48.1147C56.927 50.9559 57.1123 54.7853 57.1123 59.6029C57.1123 64.3794 57.0712 67.7559 56.9888 69.7324C56.9476 71.7088 56.8035 73.6441 56.5565 75.5382C56.3094 77.3912 55.9594 78.7912 55.5065 79.7382C55.0947 80.6441 54.477 81.4882 53.6535 82.2706C52.8712 83.0118 51.9241 83.5059 50.8123 83.7529C49.7418 83.9588 48.3829 84.0618 46.7359 84.0618H45.9947V47.0647C45.9947 46.4471 45.83 45.9941 45.5006 45.7059C45.2123 45.4176 44.5329 45.2735 43.4623 45.2735H38.8918V39.4059ZM75.248 84H68.7627C67.3627 84 66.4362 83.7735 65.9833 83.3206C65.5715 82.8676 65.3656 81.9206 65.3656 80.4794V41.8147C65.3656 41.0735 65.5715 40.4765 65.9833 40.0235C66.3951 39.5706 66.9304 39.3441 67.5892 39.3441H75.248V84ZM77.7186 39.3441H85.5627C87.9509 39.3441 89.8245 39.5294 91.1833 39.9C92.5833 40.2706 93.6333 41.0118 94.3333 42.1235C95.0333 43.1941 95.4657 44.4088 95.6304 45.7676C95.8362 47.0853 95.9392 48.9588 95.9392 51.3882C95.9392 53.8176 95.8362 55.6706 95.6304 56.9471C95.4657 58.2235 95.0333 59.4176 94.3333 60.5294C93.6745 61.6412 92.6245 62.4235 91.1833 62.8765C89.7833 63.3294 87.9098 63.5559 85.5627 63.5559H77.7186V57.6882H82.2892C83.3598 57.6882 84.0392 57.5441 84.3274 57.2559C84.6568 56.9676 84.8215 56.5147 84.8215 55.8971V47.0647C84.8215 46.4059 84.6568 45.9324 84.3274 45.6441C84.0392 45.3559 83.3598 45.2118 82.2892 45.2118H77.7186V39.3441ZM83.648 65.4706H91.3068C92.5421 65.4706 93.4274 65.8206 93.9627 66.5206C94.498 67.1794 94.7657 68.2706 94.7657 69.7941V84H85.8715C85.2127 84 84.6774 83.7735 84.2656 83.3206C83.8539 82.8676 83.648 82.2706 83.648 81.5294V65.4706ZM103.607 39.3441H110.092C111.492 39.3441 112.398 39.5706 112.81 40.0235C113.263 40.4765 113.489 41.4235 113.489 42.8647V84H107.004C105.604 84 104.677 83.7735 104.224 83.3206C103.813 82.8676 103.607 81.9206 103.607 80.4794V39.3441ZM120.16 65.5324H127.201C128.436 65.5324 129.321 65.8824 129.857 66.5824C130.392 67.2412 130.66 68.3324 130.66 69.8559V84H122.383C121.724 84 121.189 83.7735 120.777 83.3206C120.366 82.8676 120.16 82.2706 120.16 81.5294V65.5324ZM120.345 39.3441H127.448C128.642 39.3441 129.404 39.5706 129.733 40.0235C130.063 40.4765 130.227 41.4235 130.227 42.8647V55.9588C130.227 58.4294 129.774 60.2824 128.868 61.5176C128.004 62.7118 126.233 63.3088 123.557 63.3088H115.96V57.4412H118.677C119.418 57.4412 119.871 57.3176 120.036 57.0706C120.242 56.7824 120.345 56.3088 120.345 55.65V39.3441ZM161.441 84H154.956C153.556 84 152.629 83.7735 152.176 83.3206C151.765 82.8676 151.559 81.9206 151.559 80.4794V42.8647C151.559 41.4235 151.765 40.4765 152.176 40.0235C152.629 39.5706 153.556 39.3441 154.956 39.3441H161.441V84ZM204.166 39.3441V80.4794C204.166 81.9206 203.939 82.8676 203.486 83.3206C203.075 83.7735 202.169 84 200.769 84H191.998C189.569 84 187.963 83.6294 187.181 82.8882C186.439 82.1471 185.781 80.2324 185.204 77.1441C184.051 71.05 182.384 61.2088 180.201 47.6206C180.036 46.5912 179.789 45.9324 179.46 45.6441C179.172 45.3559 178.657 45.1912 177.916 45.15H170.319V39.3441H183.722C184.751 39.3441 185.575 39.4676 186.192 39.7147C186.81 39.9618 187.304 40.4971 187.675 41.3206C188.086 42.1029 188.354 42.8647 188.478 43.6059C188.642 44.3471 188.807 45.2118 188.972 46.2C189.178 47.3941 189.466 49.1441 189.836 51.45C190.536 56.1029 191.628 62.6706 193.11 71.1529C193.686 74.7765 194.078 76.8147 194.284 77.2676C194.531 77.6794 194.942 77.9265 195.519 78.0088V41.8147C195.519 41.0735 195.725 40.4765 196.136 40.0235C196.548 39.5706 197.084 39.3441 197.742 39.3441H204.166ZM170.319 47.3118H176.742C177.401 47.3118 177.936 47.5382 178.348 47.9912C178.76 48.4441 178.966 49.0412 178.966 49.7824V80.4794C178.966 81.8794 178.781 82.8265 178.41 83.3206C178.039 83.7735 177.298 84 176.186 84H170.319V47.3118ZM235.631 84H229.146C227.746 84 226.819 83.7735 226.366 83.3206C225.955 82.8676 225.749 81.9206 225.749 80.4794V41.8147C225.749 41.0735 225.955 40.4765 226.366 40.0235C226.778 39.5706 227.314 39.3441 227.972 39.3441H235.631V84ZM238.102 39.3441H245.946C249.858 39.3441 252.452 40.2706 253.728 42.1235C255.046 43.9353 255.705 47.6 255.705 53.1176C255.705 56.7824 255.293 59.6441 254.469 61.7029C253.687 63.7618 252.637 65.1412 251.319 65.8412C250.002 66.5 248.211 66.8294 245.946 66.8294H238.102V60.9618H242.672C243.743 60.9618 244.422 60.8176 244.711 60.5294C245.04 60.2412 245.205 59.7882 245.205 59.1706V47.0647C245.205 46.4059 245.04 45.9324 244.711 45.6441C244.422 45.3559 243.743 45.2118 242.672 45.2118H238.102V39.3441ZM272.002 84H265.517C264.117 84 263.191 83.7735 262.738 83.3206C262.326 82.8676 262.12 81.9206 262.12 80.4794V41.8147C262.12 41.0735 262.326 40.4765 262.738 40.0235C263.149 39.5706 263.685 39.3441 264.344 39.3441H272.002V84ZM274.473 39.3441H282.317C284.705 39.3441 286.579 39.5294 287.938 39.9C289.338 40.2706 290.388 41.0118 291.088 42.1235C291.788 43.1941 292.22 44.4088 292.385 45.7676C292.591 47.0853 292.694 48.9588 292.694 51.3882C292.694 53.8176 292.591 55.6706 292.385 56.9471C292.22 58.2235 291.788 59.4176 291.088 60.5294C290.429 61.6412 289.379 62.4235 287.938 62.8765C286.538 63.3294 284.664 63.5559 282.317 63.5559H274.473V57.6882H279.044C280.114 57.6882 280.794 57.5441 281.082 57.2559C281.411 56.9676 281.576 56.5147 281.576 55.8971V47.0647C281.576 46.4059 281.411 45.9324 281.082 45.6441C280.794 45.3559 280.114 45.2118 279.044 45.2118H274.473V39.3441ZM280.402 65.4706H288.061C289.296 65.4706 290.182 65.8206 290.717 66.5206C291.252 67.1794 291.52 68.2706 291.52 69.7941V84H282.626C281.967 84 281.432 83.7735 281.02 83.3206C280.608 82.8676 280.402 82.2706 280.402 81.5294V65.4706ZM310.985 39.3441V76.3412C310.985 76.9588 311.129 77.4118 311.417 77.7C311.746 77.9882 312.446 78.1324 313.517 78.1324H318.088V84H310.243C308.596 84 307.217 83.8765 306.105 83.6294C305.035 83.3824 304.088 82.8882 303.264 82.1471C302.482 81.3647 301.864 80.5 301.411 79.5529C300.999 78.6059 300.67 77.1853 300.423 75.2912C300.052 72.45 299.867 68.6412 299.867 63.8647C299.867 59.0471 299.888 55.65 299.929 53.6735C300.011 51.6971 300.176 49.7824 300.423 47.9294C300.67 46.0353 300.999 44.6353 301.411 43.7294C301.864 42.7824 302.482 41.9382 303.264 41.1971C304.088 40.4147 305.035 39.9206 306.105 39.7147C307.217 39.4676 308.596 39.3441 310.243 39.3441H310.985ZM313.455 39.4059H321.299C322.946 39.4059 324.305 39.5294 325.376 39.7765C326.488 40.0235 327.435 40.5382 328.217 41.3206C329.04 42.0618 329.658 42.9059 330.07 43.8529C330.523 44.8 330.873 46.2206 331.12 48.1147C331.49 50.9559 331.676 54.7853 331.676 59.6029C331.676 64.3794 331.635 67.7559 331.552 69.7324C331.511 71.7088 331.367 73.6441 331.12 75.5382C330.873 77.3912 330.523 78.7912 330.07 79.7382C329.658 80.6441 329.04 81.4882 328.217 82.2706C327.435 83.0118 326.488 83.5059 325.376 83.7529C324.305 83.9588 322.946 84.0618 321.299 84.0618H320.558V47.0647C320.558 46.4471 320.393 45.9941 320.064 45.7059C319.776 45.4176 319.096 45.2735 318.026 45.2735H313.455V39.4059ZM350.553 39.3441V76.3412C350.553 76.9588 350.697 77.4118 350.985 77.7C351.314 77.9882 352.014 78.1324 353.085 78.1324H357.656V84H349.811C348.164 84 346.785 83.8765 345.673 83.6294C344.603 83.3824 343.656 82.8882 342.832 82.1471C342.05 81.3647 341.432 80.5 340.979 79.5529C340.567 78.6059 340.238 77.1853 339.991 75.2912C339.62 72.45 339.435 68.6412 339.435 63.8647C339.435 59.0471 339.456 55.65 339.497 53.6735C339.579 51.6971 339.744 49.7824 339.991 47.9294C340.238 46.0353 340.567 44.6353 340.979 43.7294C341.432 42.7824 342.05 41.9382 342.832 41.1971C343.656 40.4147 344.603 39.9206 345.673 39.7147C346.785 39.4676 348.164 39.3441 349.811 39.3441H350.553ZM353.023 59.6647H363.894C367.929 59.6647 369.947 61.5176 369.947 65.2235V78.0706C369.947 80.6235 369.741 82.25 369.329 82.95C368.958 83.65 367.847 84 365.994 84H360.126V67.3235C360.126 66.6647 360.023 66.2118 359.817 65.9647C359.653 65.6765 359.2 65.5324 358.458 65.5324H353.023V59.6647ZM353.023 39.3441H360.867C363.873 39.3441 366.138 39.8588 367.661 40.8882C369.226 41.9176 370.008 43.7088 370.008 46.2618V51.8206C370.008 52.6853 369.72 53.1176 369.144 53.1176H361.361C360.785 53.1176 360.435 53.0353 360.311 52.8706C360.188 52.7059 360.126 52.3559 360.126 51.8206V47.0029C360.126 46.3441 360.023 45.8912 359.817 45.6441C359.653 45.3559 359.2 45.2118 358.458 45.2118H353.023V39.3441ZM388.052 84H381.567C380.167 84 379.241 83.7735 378.788 83.3206C378.376 82.8676 378.17 81.9206 378.17 80.4794V41.8147C378.17 41.0735 378.376 40.4765 378.788 40.0235C379.2 39.5706 379.735 39.3441 380.394 39.3441H388.052V84ZM390.523 39.3441H398.367C400.755 39.3441 402.629 39.5294 403.988 39.9C405.388 40.2706 406.438 41.0118 407.138 42.1235C407.838 43.1941 408.27 44.4088 408.435 45.7676C408.641 47.0853 408.744 48.9588 408.744 51.3882C408.744 53.8176 408.641 55.6706 408.435 56.9471C408.27 58.2235 407.838 59.4176 407.138 60.5294C406.479 61.6412 405.429 62.4235 403.988 62.8765C402.588 63.3294 400.714 63.5559 398.367 63.5559H390.523V57.6882H395.094C396.164 57.6882 396.844 57.5441 397.132 57.2559C397.461 56.9676 397.626 56.5147 397.626 55.8971V47.0647C397.626 46.4059 397.461 45.9324 397.132 45.6441C396.844 45.3559 396.164 45.2118 395.094 45.2118H390.523V39.3441ZM396.452 65.4706H404.111C405.347 65.4706 406.232 65.8206 406.767 66.5206C407.302 67.1794 407.57 68.2706 407.57 69.7941V84H398.676C398.017 84 397.482 83.7735 397.07 83.3206C396.658 82.8676 396.452 82.2706 396.452 81.5294V65.4706ZM426.293 84H419.808C418.408 84 417.482 83.7735 417.029 83.3206C416.617 82.8676 416.411 81.9206 416.411 80.4794V42.8647C416.411 41.4235 416.617 40.4765 417.029 40.0235C417.482 39.5706 418.408 39.3441 419.808 39.3441H426.293V84ZM445.379 75.3529V80.6029C445.379 82.0029 445.152 82.9294 444.699 83.3824C444.246 83.7941 443.299 84 441.858 84H428.764V75.3529H445.379ZM441.673 57.1324V60.8382C441.673 62.3206 441.529 63.2676 441.241 63.6794C440.952 64.05 440.129 64.2353 438.77 64.2353H428.764V57.1324H441.673ZM444.761 39.3441V44.5941C444.761 45.9941 444.535 46.9206 444.082 47.3735C443.629 47.7853 442.682 47.9912 441.241 47.9912H428.764V39.3441H444.761ZM462.37 39.4059V57.1324C462.37 57.7912 462.514 58.2647 462.803 58.5529C463.132 58.8412 463.832 58.9853 464.903 58.9853H469.473V64.8529H461.629C459.282 64.8529 457.388 64.6059 455.947 64.1118C454.547 63.6176 453.497 62.7529 452.797 61.5176C452.138 60.2412 451.706 58.8824 451.5 57.4412C451.335 56 451.253 54.0647 451.253 51.6353C451.253 49.1647 451.335 47.2912 451.5 46.0147C451.706 44.7382 452.138 43.5441 452.797 42.4324C453.497 41.3206 454.547 40.5382 455.947 40.0853C457.388 39.6324 459.282 39.4059 461.629 39.4059H462.37ZM471.944 58.9853H472.685C474.456 58.9853 475.814 59.0265 476.762 59.1088C477.75 59.15 478.697 59.3353 479.603 59.6647C480.509 59.9529 481.126 60.3029 481.456 60.7147C481.826 61.1265 482.156 61.8471 482.444 62.8765C482.773 63.8647 482.959 64.9353 483 66.0882C483.041 67.2412 483.062 68.8882 483.062 71.0294C483.062 73.1706 483.041 74.8794 483 76.1559C482.959 77.3912 482.773 78.5853 482.444 79.7382C482.156 80.85 481.826 81.6324 481.456 82.0853C481.126 82.5382 480.509 82.95 479.603 83.3206C478.697 83.65 477.75 83.8559 476.762 83.9382C475.814 83.9794 474.456 84 472.685 84H471.944V58.9853ZM452.117 70.2265H459.9C460.476 70.2265 460.826 70.3088 460.95 70.4735C461.073 70.6382 461.135 70.9882 461.135 71.5235V76.3412C461.135 77 461.217 77.4735 461.382 77.7618C461.588 78.0088 462.062 78.1324 462.803 78.1324H469.473V84H460.394C457.388 84 455.103 83.4853 453.538 82.4559C452.014 81.4265 451.253 79.6353 451.253 77.0824V71.5235C451.253 70.6588 451.541 70.2265 452.117 70.2265ZM464.841 39.3441H472.685C475.691 39.3441 477.956 39.8588 479.479 40.8882C481.044 41.9176 481.826 43.7088 481.826 46.2618V51.8206C481.826 52.6853 481.538 53.1176 480.962 53.1176H473.179C472.603 53.1176 472.253 53.0353 472.129 52.8706C472.006 52.7059 471.944 52.3559 471.944 51.8206V47.0029C471.944 46.3441 471.841 45.8912 471.635 45.6441C471.47 45.3559 471.017 45.2118 470.276 45.2118H464.841V39.3441ZM500.913 39.4059V57.1324C500.913 57.7912 501.057 58.2647 501.345 58.5529C501.675 58.8412 502.375 58.9853 503.445 58.9853H508.016V64.8529H500.172C497.825 64.8529 495.931 64.6059 494.489 64.1118C493.089 63.6176 492.039 62.7529 491.339 61.5176C490.681 60.2412 490.248 58.8824 490.042 57.4412C489.878 56 489.795 54.0647 489.795 51.6353C489.795 49.1647 489.878 47.2912 490.042 46.0147C490.248 44.7382 490.681 43.5441 491.339 42.4324C492.039 41.3206 493.089 40.5382 494.489 40.0853C495.931 39.6324 497.825 39.4059 500.172 39.4059H500.913ZM510.486 58.9853H511.228C512.998 58.9853 514.357 59.0265 515.304 59.1088C516.292 59.15 517.239 59.3353 518.145 59.6647C519.051 59.9529 519.669 60.3029 519.998 60.7147C520.369 61.1265 520.698 61.8471 520.986 62.8765C521.316 63.8647 521.501 64.9353 521.542 66.0882C521.584 67.2412 521.604 68.8882 521.604 71.0294C521.604 73.1706 521.584 74.8794 521.542 76.1559C521.501 77.3912 521.316 78.5853 520.986 79.7382C520.698 80.85 520.369 81.6324 519.998 82.0853C519.669 82.5382 519.051 82.95 518.145 83.3206C517.239 83.65 516.292 83.8559 515.304 83.9382C514.357 83.9794 512.998 84 511.228 84H510.486V58.9853ZM490.66 70.2265H498.442C499.019 70.2265 499.369 70.3088 499.492 70.4735C499.616 70.6382 499.678 70.9882 499.678 71.5235V76.3412C499.678 77 499.76 77.4735 499.925 77.7618C500.131 78.0088 500.604 78.1324 501.345 78.1324H508.016V84H498.936C495.931 84 493.645 83.4853 492.081 82.4559C490.557 81.4265 489.795 79.6353 489.795 77.0824V71.5235C489.795 70.6588 490.084 70.2265 490.66 70.2265ZM503.384 39.3441H511.228C514.234 39.3441 516.498 39.8588 518.022 40.8882C519.586 41.9176 520.369 43.7088 520.369 46.2618V51.8206C520.369 52.6853 520.081 53.1176 519.504 53.1176H511.722C511.145 53.1176 510.795 53.0353 510.672 52.8706C510.548 52.7059 510.486 52.3559 510.486 51.8206V47.0029C510.486 46.3441 510.384 45.8912 510.178 45.6441C510.013 45.3559 509.56 45.2118 508.819 45.2118H503.384V39.3441Z" fill="#020508"/>
<path d="M604.206 39.3441V76.3412C604.206 77 604.288 77.4735 604.453 77.7618C604.659 78.0088 605.132 78.1324 605.874 78.1324H612.544V84H603.465C600.459 84 598.174 83.4853 596.609 82.4559C595.085 81.4265 594.324 79.6353 594.324 77.0824V42.8647C594.324 41.4235 594.529 40.4765 594.941 40.0235C595.394 39.5706 596.321 39.3441 597.721 39.3441H604.206ZM614.397 53.1176H620.821C622.056 53.1176 622.941 53.4676 623.476 54.1676C624.012 54.8265 624.279 55.9176 624.279 57.4412V76.3412C624.279 77 624.362 77.4735 624.526 77.7618C624.732 78.0088 625.206 78.1324 625.947 78.1324H632.618V84H616.621C615.962 84 615.426 83.7735 615.015 83.3206C614.603 82.8676 614.397 82.2706 614.397 81.5294V53.1176ZM635.088 39.3441H641.574C642.974 39.3441 643.9 39.5706 644.353 40.0235C644.806 40.4765 645.032 41.4235 645.032 42.8647V81.5294C645.032 82.2706 644.806 82.8676 644.353 83.3206C643.941 83.7735 643.406 84 642.747 84H635.088V39.3441ZM664.421 39.3441V76.3412C664.421 76.9588 664.565 77.4118 664.854 77.7C665.183 77.9882 665.883 78.1324 666.954 78.1324H671.524V84H663.68C662.033 84 660.654 83.8765 659.542 83.6294C658.471 83.3824 657.524 82.8882 656.701 82.1471C655.918 81.3647 655.301 80.5 654.848 79.5529C654.436 78.6059 654.106 77.1853 653.859 75.2912C653.489 72.45 653.304 68.6412 653.304 63.8647C653.304 59.0471 653.324 55.65 653.365 53.6735C653.448 51.6971 653.612 49.7824 653.859 47.9294C654.106 46.0353 654.436 44.6353 654.848 43.7294C655.301 42.7824 655.918 41.9382 656.701 41.1971C657.524 40.4147 658.471 39.9206 659.542 39.7147C660.654 39.4676 662.033 39.3441 663.68 39.3441H664.421ZM666.892 39.4059H674.736C676.383 39.4059 677.742 39.5294 678.812 39.7765C679.924 40.0235 680.871 40.5382 681.654 41.3206C682.477 42.0618 683.095 42.9059 683.506 43.8529C683.959 44.8 684.309 46.2206 684.556 48.1147C684.927 50.9559 685.112 54.7853 685.112 59.6029C685.112 64.3794 685.071 67.7559 684.989 69.7324C684.948 71.7088 684.804 73.6441 684.556 75.5382C684.309 77.3912 683.959 78.7912 683.506 79.7382C683.095 80.6441 682.477 81.4882 681.654 82.2706C680.871 83.0118 679.924 83.5059 678.812 83.7529C677.742 83.9588 676.383 84.0618 674.736 84.0618H673.995V47.0647C673.995 46.4471 673.83 45.9941 673.501 45.7059C673.212 45.4176 672.533 45.2735 671.462 45.2735H666.892V39.4059ZM703.248 84H696.763C695.363 84 694.436 83.7735 693.983 83.3206C693.572 82.8676 693.366 81.9206 693.366 80.4794V41.8147C693.366 41.0735 693.572 40.4765 693.983 40.0235C694.395 39.5706 694.93 39.3441 695.589 39.3441H703.248V84ZM705.719 39.3441H713.563C715.951 39.3441 717.824 39.5294 719.183 39.9C720.583 40.2706 721.633 41.0118 722.333 42.1235C723.033 43.1941 723.466 44.4088 723.63 45.7676C723.836 47.0853 723.939 48.9588 723.939 51.3882C723.939 53.8176 723.836 55.6706 723.63 56.9471C723.466 58.2235 723.033 59.4176 722.333 60.5294C721.674 61.6412 720.624 62.4235 719.183 62.8765C717.783 63.3294 715.91 63.5559 713.563 63.5559H705.719V57.6882H710.289C711.36 57.6882 712.039 57.5441 712.327 57.2559C712.657 56.9676 712.822 56.5147 712.822 55.8971V47.0647C712.822 46.4059 712.657 45.9324 712.327 45.6441C712.039 45.3559 711.36 45.2118 710.289 45.2118H705.719V39.3441ZM711.648 65.4706H719.307C720.542 65.4706 721.427 65.8206 721.963 66.5206C722.498 67.1794 722.766 68.2706 722.766 69.7941V84H713.872C713.213 84 712.677 83.7735 712.266 83.3206C711.854 82.8676 711.648 82.2706 711.648 81.5294V65.4706ZM731.607 39.3441H738.092C739.492 39.3441 740.398 39.5706 740.81 40.0235C741.263 40.4765 741.489 41.4235 741.489 42.8647V84H735.004C733.604 84 732.677 83.7735 732.224 83.3206C731.813 82.8676 731.607 81.9206 731.607 80.4794V39.3441ZM748.16 65.5324H755.201C756.436 65.5324 757.321 65.8824 757.857 66.5824C758.392 67.2412 758.66 68.3324 758.66 69.8559V84H750.383C749.724 84 749.189 83.7735 748.777 83.3206C748.366 82.8676 748.16 82.2706 748.16 81.5294V65.5324ZM748.345 39.3441H755.448C756.642 39.3441 757.404 39.5706 757.733 40.0235C758.063 40.4765 758.227 41.4235 758.227 42.8647V55.9588C758.227 58.4294 757.774 60.2824 756.868 61.5176C756.004 62.7118 754.233 63.3088 751.557 63.3088H743.96V57.4412H746.677C747.418 57.4412 747.871 57.3176 748.036 57.0706C748.242 56.7824 748.345 56.3088 748.345 55.65V39.3441ZM789.441 84H782.956C781.556 84 780.629 83.7735 780.176 83.3206C779.765 82.8676 779.559 81.9206 779.559 80.4794V42.8647C779.559 41.4235 779.765 40.4765 780.176 40.0235C780.629 39.5706 781.556 39.3441 782.956 39.3441H789.441V84ZM832.166 39.3441V80.4794C832.166 81.9206 831.939 82.8676 831.486 83.3206C831.075 83.7735 830.169 84 828.769 84H819.998C817.569 84 815.963 83.6294 815.181 82.8882C814.439 82.1471 813.781 80.2324 813.204 77.1441C812.051 71.05 810.384 61.2088 808.201 47.6206C808.036 46.5912 807.789 45.9324 807.46 45.6441C807.172 45.3559 806.657 45.1912 805.916 45.15H798.319V39.3441H811.722C812.751 39.3441 813.575 39.4676 814.192 39.7147C814.81 39.9618 815.304 40.4971 815.675 41.3206C816.086 42.1029 816.354 42.8647 816.478 43.6059C816.642 44.3471 816.807 45.2118 816.972 46.2C817.178 47.3941 817.466 49.1441 817.836 51.45C818.536 56.1029 819.628 62.6706 821.11 71.1529C821.686 74.7765 822.078 76.8147 822.284 77.2676C822.531 77.6794 822.942 77.9265 823.519 78.0088V41.8147C823.519 41.0735 823.725 40.4765 824.136 40.0235C824.548 39.5706 825.084 39.3441 825.742 39.3441H832.166ZM798.319 47.3118H804.742C805.401 47.3118 805.936 47.5382 806.348 47.9912C806.76 48.4441 806.966 49.0412 806.966 49.7824V80.4794C806.966 81.8794 806.781 82.8265 806.41 83.3206C806.039 83.7735 805.298 84 804.186 84H798.319V47.3118ZM863.631 84H857.146C855.746 84 854.819 83.7735 854.366 83.3206C853.955 82.8676 853.749 81.9206 853.749 80.4794V41.8147C853.749 41.0735 853.955 40.4765 854.366 40.0235C854.778 39.5706 855.314 39.3441 855.972 39.3441H863.631V84ZM866.102 39.3441H873.946C877.858 39.3441 880.452 40.2706 881.728 42.1235C883.046 43.9353 883.705 47.6 883.705 53.1176C883.705 56.7824 883.293 59.6441 882.469 61.7029C881.687 63.7618 880.637 65.1412 879.319 65.8412C878.002 66.5 876.211 66.8294 873.946 66.8294H866.102V60.9618H870.672C871.743 60.9618 872.422 60.8176 872.711 60.5294C873.04 60.2412 873.205 59.7882 873.205 59.1706V47.0647C873.205 46.4059 873.04 45.9324 872.711 45.6441C872.422 45.3559 871.743 45.2118 870.672 45.2118H866.102V39.3441ZM900.002 84H893.517C892.117 84 891.191 83.7735 890.738 83.3206C890.326 82.8676 890.12 81.9206 890.12 80.4794V41.8147C890.12 41.0735 890.326 40.4765 890.738 40.0235C891.149 39.5706 891.685 39.3441 892.344 39.3441H900.002V84ZM902.473 39.3441H910.317C912.705 39.3441 914.579 39.5294 915.938 39.9C917.338 40.2706 918.388 41.0118 919.088 42.1235C919.788 43.1941 920.22 44.4088 920.385 45.7676C920.591 47.0853 920.694 48.9588 920.694 51.3882C920.694 53.8176 920.591 55.6706 920.385 56.9471C920.22 58.2235 919.788 59.4176 919.088 60.5294C918.429 61.6412 917.379 62.4235 915.938 62.8765C914.538 63.3294 912.664 63.5559 910.317 63.5559H902.473V57.6882H907.044C908.114 57.6882 908.794 57.5441 909.082 57.2559C909.411 56.9676 909.576 56.5147 909.576 55.8971V47.0647C909.576 46.4059 909.411 45.9324 909.082 45.6441C908.794 45.3559 908.114 45.2118 907.044 45.2118H902.473V39.3441ZM908.402 65.4706H916.061C917.296 65.4706 918.182 65.8206 918.717 66.5206C919.252 67.1794 919.52 68.2706 919.52 69.7941V84H910.626C909.967 84 909.432 83.7735 909.02 83.3206C908.608 82.8676 908.402 82.2706 908.402 81.5294V65.4706ZM938.985 39.3441V76.3412C938.985 76.9588 939.129 77.4118 939.417 77.7C939.746 77.9882 940.446 78.1324 941.517 78.1324H946.088V84H938.243C936.596 84 935.217 83.8765 934.105 83.6294C933.035 83.3824 932.088 82.8882 931.264 82.1471C930.482 81.3647 929.864 80.5 929.411 79.5529C928.999 78.6059 928.67 77.1853 928.423 75.2912C928.052 72.45 927.867 68.6412 927.867 63.8647C927.867 59.0471 927.888 55.65 927.929 53.6735C928.011 51.6971 928.176 49.7824 928.423 47.9294C928.67 46.0353 928.999 44.6353 929.411 43.7294C929.864 42.7824 930.482 41.9382 931.264 41.1971C932.088 40.4147 933.035 39.9206 934.105 39.7147C935.217 39.4676 936.596 39.3441 938.243 39.3441H938.985ZM941.455 39.4059H949.299C950.946 39.4059 952.305 39.5294 953.376 39.7765C954.488 40.0235 955.435 40.5382 956.217 41.3206C957.04 42.0618 957.658 42.9059 958.07 43.8529C958.523 44.8 958.873 46.2206 959.12 48.1147C959.49 50.9559 959.676 54.7853 959.676 59.6029C959.676 64.3794 959.635 67.7559 959.552 69.7324C959.511 71.7088 959.367 73.6441 959.12 75.5382C958.873 77.3912 958.523 78.7912 958.07 79.7382C957.658 80.6441 957.04 81.4882 956.217 82.2706C955.435 83.0118 954.488 83.5059 953.376 83.7529C952.305 83.9588 950.946 84.0618 949.299 84.0618H948.558V47.0647C948.558 46.4471 948.393 45.9941 948.064 45.7059C947.776 45.4176 947.096 45.2735 946.026 45.2735H941.455V39.4059ZM978.553 39.3441V76.3412C978.553 76.9588 978.697 77.4118 978.985 77.7C979.314 77.9882 980.014 78.1324 981.085 78.1324H985.656V84H977.811C976.164 84 974.785 83.8765 973.673 83.6294C972.603 83.3824 971.656 82.8882 970.832 82.1471C970.05 81.3647 969.432 80.5 968.979 79.5529C968.567 78.6059 968.238 77.1853 967.991 75.2912C967.62 72.45 967.435 68.6412 967.435 63.8647C967.435 59.0471 967.456 55.65 967.497 53.6735C967.579 51.6971 967.744 49.7824 967.991 47.9294C968.238 46.0353 968.567 44.6353 968.979 43.7294C969.432 42.7824 970.05 41.9382 970.832 41.1971C971.656 40.4147 972.603 39.9206 973.673 39.7147C974.785 39.4676 976.164 39.3441 977.811 39.3441H978.553ZM981.023 59.6647H991.894C995.929 59.6647 997.947 61.5176 997.947 65.2235V78.0706C997.947 80.6235 997.741 82.25 997.329 82.95C996.958 83.65 995.847 84 993.994 84H988.126V67.3235C988.126 66.6647 988.023 66.2118 987.817 65.9647C987.653 65.6765 987.2 65.5324 986.458 65.5324H981.023V59.6647ZM981.023 39.3441H988.867C991.873 39.3441 994.138 39.8588 995.661 40.8882C997.226 41.9176 998.008 43.7088 998.008 46.2618V51.8206C998.008 52.6853 997.72 53.1176 997.144 53.1176H989.361C988.785 53.1176 988.435 53.0353 988.311 52.8706C988.188 52.7059 988.126 52.3559 988.126 51.8206V47.0029C988.126 46.3441 988.023 45.8912 987.817 45.6441C987.653 45.3559 987.2 45.2118 986.458 45.2118H981.023V39.3441ZM1016.05 84H1009.57C1008.17 84 1007.24 83.7735 1006.79 83.3206C1006.38 82.8676 1006.17 81.9206 1006.17 80.4794V41.8147C1006.17 41.0735 1006.38 40.4765 1006.79 40.0235C1007.2 39.5706 1007.73 39.3441 1008.39 39.3441H1016.05V84ZM1018.52 39.3441H1026.37C1028.76 39.3441 1030.63 39.5294 1031.99 39.9C1033.39 40.2706 1034.44 41.0118 1035.14 42.1235C1035.84 43.1941 1036.27 44.4088 1036.43 45.7676C1036.64 47.0853 1036.74 48.9588 1036.74 51.3882C1036.74 53.8176 1036.64 55.6706 1036.43 56.9471C1036.27 58.2235 1035.84 59.4176 1035.14 60.5294C1034.48 61.6412 1033.43 62.4235 1031.99 62.8765C1030.59 63.3294 1028.71 63.5559 1026.37 63.5559H1018.52V57.6882H1023.09C1024.16 57.6882 1024.84 57.5441 1025.13 57.2559C1025.46 56.9676 1025.63 56.5147 1025.63 55.8971V47.0647C1025.63 46.4059 1025.46 45.9324 1025.13 45.6441C1024.84 45.3559 1024.16 45.2118 1023.09 45.2118H1018.52V39.3441ZM1024.45 65.4706H1032.11C1033.35 65.4706 1034.23 65.8206 1034.77 66.5206C1035.3 67.1794 1035.57 68.2706 1035.57 69.7941V84H1026.68C1026.02 84 1025.48 83.7735 1025.07 83.3206C1024.66 82.8676 1024.45 82.2706 1024.45 81.5294V65.4706ZM1054.29 84H1047.81C1046.41 84 1045.48 83.7735 1045.03 83.3206C1044.62 82.8676 1044.41 81.9206 1044.41 80.4794V42.8647C1044.41 41.4235 1044.62 40.4765 1045.03 40.0235C1045.48 39.5706 1046.41 39.3441 1047.81 39.3441H1054.29V84ZM1073.38 75.3529V80.6029C1073.38 82.0029 1073.15 82.9294 1072.7 83.3824C1072.25 83.7941 1071.3 84 1069.86 84H1056.76V75.3529H1073.38ZM1069.67 57.1324V60.8382C1069.67 62.3206 1069.53 63.2676 1069.24 63.6794C1068.95 64.05 1068.13 64.2353 1066.77 64.2353H1056.76V57.1324H1069.67ZM1072.76 39.3441V44.5941C1072.76 45.9941 1072.53 46.9206 1072.08 47.3735C1071.63 47.7853 1070.68 47.9912 1069.24 47.9912H1056.76V39.3441H1072.76ZM1090.37 39.4059V57.1324C1090.37 57.7912 1090.51 58.2647 1090.8 58.5529C1091.13 58.8412 1091.83 58.9853 1092.9 58.9853H1097.47V64.8529H1089.63C1087.28 64.8529 1085.39 64.6059 1083.95 64.1118C1082.55 63.6176 1081.5 62.7529 1080.8 61.5176C1080.14 60.2412 1079.71 58.8824 1079.5 57.4412C1079.34 56 1079.25 54.0647 1079.25 51.6353C1079.25 49.1647 1079.34 47.2912 1079.5 46.0147C1079.71 44.7382 1080.14 43.5441 1080.8 42.4324C1081.5 41.3206 1082.55 40.5382 1083.95 40.0853C1085.39 39.6324 1087.28 39.4059 1089.63 39.4059H1090.37ZM1099.94 58.9853H1100.69C1102.46 58.9853 1103.81 59.0265 1104.76 59.1088C1105.75 59.15 1106.7 59.3353 1107.6 59.6647C1108.51 59.9529 1109.13 60.3029 1109.46 60.7147C1109.83 61.1265 1110.16 61.8471 1110.44 62.8765C1110.77 63.8647 1110.96 64.9353 1111 66.0882C1111.04 67.2412 1111.06 68.8882 1111.06 71.0294C1111.06 73.1706 1111.04 74.8794 1111 76.1559C1110.96 77.3912 1110.77 78.5853 1110.44 79.7382C1110.16 80.85 1109.83 81.6324 1109.46 82.0853C1109.13 82.5382 1108.51 82.95 1107.6 83.3206C1106.7 83.65 1105.75 83.8559 1104.76 83.9382C1103.81 83.9794 1102.46 84 1100.69 84H1099.94V58.9853ZM1080.12 70.2265H1087.9C1088.48 70.2265 1088.83 70.3088 1088.95 70.4735C1089.07 70.6382 1089.14 70.9882 1089.14 71.5235V76.3412C1089.14 77 1089.22 77.4735 1089.38 77.7618C1089.59 78.0088 1090.06 78.1324 1090.8 78.1324H1097.47V84H1088.39C1085.39 84 1083.1 83.4853 1081.54 82.4559C1080.01 81.4265 1079.25 79.6353 1079.25 77.0824V71.5235C1079.25 70.6588 1079.54 70.2265 1080.12 70.2265ZM1092.84 39.3441H1100.69C1103.69 39.3441 1105.96 39.8588 1107.48 40.8882C1109.04 41.9176 1109.83 43.7088 1109.83 46.2618V51.8206C1109.83 52.6853 1109.54 53.1176 1108.96 53.1176H1101.18C1100.6 53.1176 1100.25 53.0353 1100.13 52.8706C1100.01 52.7059 1099.94 52.3559 1099.94 51.8206V47.0029C1099.94 46.3441 1099.84 45.8912 1099.64 45.6441C1099.47 45.3559 1099.02 45.2118 1098.28 45.2118H1092.84V39.3441ZM1128.91 39.4059V57.1324C1128.91 57.7912 1129.06 58.2647 1129.35 58.5529C1129.67 58.8412 1130.37 58.9853 1131.45 58.9853H1136.02V64.8529H1128.17C1125.82 64.8529 1123.93 64.6059 1122.49 64.1118C1121.09 63.6176 1120.04 62.7529 1119.34 61.5176C1118.68 60.2412 1118.25 58.8824 1118.04 57.4412C1117.88 56 1117.8 54.0647 1117.8 51.6353C1117.8 49.1647 1117.88 47.2912 1118.04 46.0147C1118.25 44.7382 1118.68 43.5441 1119.34 42.4324C1120.04 41.3206 1121.09 40.5382 1122.49 40.0853C1123.93 39.6324 1125.82 39.4059 1128.17 39.4059H1128.91ZM1138.49 58.9853H1139.23C1141 58.9853 1142.36 59.0265 1143.3 59.1088C1144.29 59.15 1145.24 59.3353 1146.15 59.6647C1147.05 59.9529 1147.67 60.3029 1148 60.7147C1148.37 61.1265 1148.7 61.8471 1148.99 62.8765C1149.32 63.8647 1149.5 64.9353 1149.54 66.0882C1149.58 67.2412 1149.6 68.8882 1149.6 71.0294C1149.6 73.1706 1149.58 74.8794 1149.54 76.1559C1149.5 77.3912 1149.32 78.5853 1148.99 79.7382C1148.7 80.85 1148.37 81.6324 1148 82.0853C1147.67 82.5382 1147.05 82.95 1146.15 83.3206C1145.24 83.65 1144.29 83.8559 1143.3 83.9382C1142.36 83.9794 1141 84 1139.23 84H1138.49V58.9853ZM1118.66 70.2265H1126.44C1127.02 70.2265 1127.37 70.3088 1127.49 70.4735C1127.62 70.6382 1127.68 70.9882 1127.68 71.5235V76.3412C1127.68 77 1127.76 77.4735 1127.92 77.7618C1128.13 78.0088 1128.6 78.1324 1129.35 78.1324H1136.02V84H1126.94C1123.93 84 1121.65 83.4853 1120.08 82.4559C1118.56 81.4265 1117.8 79.6353 1117.8 77.0824V71.5235C1117.8 70.6588 1118.08 70.2265 1118.66 70.2265ZM1131.38 39.3441H1139.23C1142.23 39.3441 1144.5 39.8588 1146.02 40.8882C1147.59 41.9176 1148.37 43.7088 1148.37 46.2618V51.8206C1148.37 52.6853 1148.08 53.1176 1147.5 53.1176H1139.72C1139.15 53.1176 1138.8 53.0353 1138.67 52.8706C1138.55 52.7059 1138.49 52.3559 1138.49 51.8206V47.0029C1138.49 46.3441 1138.38 45.8912 1138.18 45.6441C1138.01 45.3559 1137.56 45.2118 1136.82 45.2118H1131.38V39.3441Z" fill="#020508"/>
<path d="M0 -23H28.5L0 13V-23Z" fill="#020508"/>
<path d="M57 -23H85.5L57 13H28.5L57 -23Z" fill="#020508"/>
<path d="M114 -23H142.5L114 13H85.5L114 -23Z" fill="#020508"/>
<path d="M171 -23H199.5L171 13H142.5L171 -23Z" fill="#020508"/>
<path d="M228 -23H256.5L228 13H199.5L228 -23Z" fill="#020508"/>
<path d="M285 -23H313.5L285 13H256.5L285 -23Z" fill="#020508"/>
<path d="M342 -23H370.5L342 13H313.5L342 -23Z" fill="#020508"/>
<path d="M399 -23H427.5L399 13H370.5L399 -23Z" fill="#020508"/>
<path d="M456 -23H484.5L456 13H427.5L456 -23Z" fill="#020508"/>
<path d="M513 -23H541.5L513 13H484.5L513 -23Z" fill="#020508"/>
<path d="M570 -23H598.5L570 13H541.5L570 -23Z" fill="#020508"/>
<path d="M627 13L598.5 13L627 -23L627 13Z" fill="#020508"/>
<path d="M0 108H28.5L0 144V108Z" fill="#020508"/>
<path d="M57 108H85.5L57 144H28.5L57 108Z" fill="#020508"/>
<path d="M114 108H142.5L114 144H85.5L114 108Z" fill="#020508"/>
<path d="M171 108H199.5L171 144H142.5L171 108Z" fill="#020508"/>
<path d="M228 108H256.5L228 144H199.5L228 108Z" fill="#020508"/>
<path d="M285 108H313.5L285 144H256.5L285 108Z" fill="#020508"/>
<path d="M342 108H370.5L342 144H313.5L342 108Z" fill="#020508"/>
<path d="M399 108H427.5L399 144H370.5L399 108Z" fill="#020508"/>
<path d="M456 108H484.5L456 144H427.5L456 108Z" fill="#020508"/>
<path d="M513 108H541.5L513 144H484.5L513 108Z" fill="#020508"/>
<path d="M570 108H598.5L570 144H541.5L570 108Z" fill="#020508"/>
<path d="M627 144L598.5 144L627 108L627 144Z" fill="#020508"/>
<rect y="13" width="627" height="7" fill="#020508"/>
<rect y="101" width="627" height="7" fill="#020508"/>
</g>
<defs>
<clipPath id="clip0_1369_2224">
<rect width="627" height="121" fill="white"/>
</clipPath>
</defs>
</svg>
